<!-- Generated by IcoMoon.io -->
<svg version="1.1" xmlns="http://www.w3.org/2000/svg" width="640" height="640" viewBox="0 0 640 640">
<title>bell</title>
<g id="icomoon-ignore">
</g>
<path fill="#000" d="M460.395 275.074c-68.839-148.152-104.647-204.432-217.114-202.078-40.065 0.815-30.464-29.045-61.019-17.723-30.494 11.321-4.316 27.898-35.536 53.531-87.618 71.949-79.557 138.492-38.918 297.096 17.119 66.816-41.272 70.074-18.176 134.809 16.877 47.221 141.271 66.995 272.487 18.326 131.246-48.701 213.944-145.346 197.066-192.567-23.099-64.761-69.774-29.015-98.789-91.394zM347.898 519.118c-117.207 43.477-213.521 17.934-217.596 6.552-7.004-19.625 37.831-85.022 171.825-134.747s208.781-31.279 216.601-9.389c4.621 12.953-53.593 94.079-170.827 137.587zM310.218 413.626c-61.261 22.735-103.832 48.731-131.43 72.13 19.414 17.632 55.765 21.919 91.966 8.484 46.104-17.059 74.454-56.339 63.253-87.679-0.153-0.393-0.332-0.693-0.483-1.087-7.578 2.476-15.338 5.161-23.308 8.152z"></path>
</svg>
